<?xml version="1.0" encoding="utf-8"?>
<!-- Generator: Adobe Illustrator 21.1.0, SVG Export Plug-In . SVG Version: 6.00 Build 0)  -->
<svg version="1.1" id="Layer_1" xmlns="http://www.w3.org/2000/svg" xmlns:xlink="http://www.w3.org/1999/xlink" x="0px" y="0px"
	 viewBox="0 0 369.9 123.5" style="enable-background:new 0 0 369.9 123.5;" xml:space="preserve">
<style type="text/css">
	.st0{fill:#12100B;}
	.st1{fill:#B49A6C;}
</style>
<g>
	<path class="st0" d="M84.1,74.5c0-4.5-0.3-5.7-4.3-6V68c2.2,0.1,4.5,0.2,6.7,0.2c1.8,0,3.6-0.1,5.4-0.2v0.5c-3.8,0.3-4.1,1.5-4.1,6
		v13.4c0,4.5,0.3,5.7,4.3,6v0.5c-2.1-0.1-4.2-0.2-6.3-0.2c-2,0-4,0.1-6,0.2v-0.5c3.9-0.3,4.2-1.5,4.2-6v-7.2H68.8v7.2
		c0,4.5,0.3,5.7,4.3,6v0.5c-2.1-0.1-4.2-0.2-6.3-0.2c-2,0-4,0.1-6,0.2v-0.5c3.9-0.3,4.2-1.5,4.2-6V74.5c0-4.5-0.3-5.7-4.3-6V68
		c2.2,0.1,4.5,0.2,6.7,0.2c1.8,0,3.6-0.1,5.4-0.2v0.5c-3.8,0.3-4.1,1.5-4.1,6v4.9H84L84.1,74.5L84.1,74.5z"/>
	<path class="st0" d="M114.6,71.3l-4,10.2h7.7L114.6,71.3z M110.2,82.7l-2.7,7.3c-0.2,0.4-0.3,0.7-0.3,1.1c0,1.9,2.6,2.7,3.9,2.9
		v0.5c-1.6-0.1-3.3-0.2-5-0.2c-1.6,0-3.1,0.1-4.9,0.2V94c3.4-0.7,4.2-3.3,5.4-6l7.1-17.1c0.2-0.4,0.3-0.7,0.3-1s-0.2-0.9-0.5-1.3
		c1.4-0.2,2.3-0.7,3.6-1.2l8.6,23c0.8,2.1,2,3.3,4.6,3.6v0.5c-2.2-0.1-4.3-0.2-6.5-0.2c-3,0-4.1,0.1-6,0.2V94
		c2.3-0.3,4.1-1.2,4.1-2.7c0-0.4-0.2-0.9-0.4-1.2l-2.7-7.4C118.8,82.7,110.2,82.7,110.2,82.7z"/>
	<path class="st0" d="M163.5,68c2,0.1,4,0.2,5.9,0.2c1.7,0,3.5-0.1,5.2-0.2v0.5c-2.3,0.4-4,1-4,3.6c0,2.7,1.9,13.2,3,18.2
		c0.5,2.1,1,3.2,4.6,3.7v0.5c-2.2-0.1-4.4-0.2-6.5-0.2s-4.1,0.1-6.1,0.2V94c2.4-0.4,4.3-0.8,4.3-3.5c0-0.6,0-1.7-0.3-3.1l-2.8-16.2
		h-0.1c-3.1,7.7-6.9,15.1-9.5,23.1h-0.1c-2.6-8.2-6.1-15.9-9.8-23.5h-0.1c-0.9,5.9-1.9,15.2-1.9,17.9c0,3.5,0.8,5.1,4.8,5.2v0.5
		c-2.3-0.1-4.5-0.2-6.8-0.2c-1.7,0-3.4,0.1-5.1,0.2v-0.5c2.3-0.2,4.7-1.4,5-3.4c0.3-1.8,0.6-4,0.9-6l2-14.3
		c-1.2-0.9-2.8-1.5-4.4-1.8V68c2.3,0.1,4.7,0.2,7,0.2c1.7,0,3.4-0.1,5.1-0.2v0.5c-1,0.2-2.1,0.8-2.1,2.1c0,0.9,0.4,1.8,0.7,2.6
		l5.8,13.9c2.8-5.6,5.4-11.4,7.4-17.3c-0.6-0.7-1.5-1.1-2.3-1.4V68H163.5L163.5,68z"/>
	<path class="st0" d="M196.5,80.5c1.3,0.7,2.8,0.9,4.2,0.9c3.5,0,6.4-2,6.4-5.6c0-4.2-2.8-6.9-6.8-6.9c-1,0-2.4,0.1-3.7,0.6
		L196.5,80.5L196.5,80.5z M200.8,94.4c-2.1-0.1-4.1-0.2-6.2-0.2c-2,0-4,0.1-6.1,0.2v-0.5c4.1-0.3,4.4-1.5,4.4-6V74.5
		c0-4.5-0.3-5.7-4.3-6V68c1.8,0.1,3.6,0.2,5.4,0.2c2.6,0,5.2-0.4,7.8-0.4c4.1,0,9.4,3,9.4,7.9c0,5.1-5.3,6.9-9.5,6.9
		c-1.7,0-3.5-0.1-5.1-0.7v6c0,4.5,0.3,5.7,4.3,6L200.8,94.4L200.8,94.4z"/>
	<path class="st0" d="M220.3,68c1.9,0.1,3.5,0.2,5.8,0.2c1.2,0,2.3-0.1,3.5-0.2c2.2,2.8,13.5,15.9,16.8,20.4h0.1c0-1.6,0-3.2,0-4.8
		v-4.7c0-6.9-0.7-10.1-5.1-10.4V68c1.9,0.1,3.9,0.2,5.8,0.2c1.8,0,3.6-0.1,5.4-0.2v0.5c-3.5,0.5-4.5,1.7-4.5,5v21.3h-1.5
		c-6-9.2-13.9-17.6-18.8-22.8c0,1.4-0.1,2.7-0.1,4.1v7c0,9.5,0.4,10.4,5.5,10.9v0.5c-2.7-0.1-5.4-0.2-8.1-0.2
		c-1.6,0-3.1,0.1-4.7,0.2V94c3.8-0.5,5.5-0.7,5.6-4.4l0.5-18.4c-1.8-1.4-3.9-2.1-6.1-2.6L220.3,68L220.3,68z"/>
	<path class="st0" d="M271.7,92.7c0.9,0.2,3,0.5,4.6,0.5c6.6,0,10-2.1,14-7.2l0.5,0.4l-3.7,8.1c-0.9-0.1-1.9-0.2-2.9-0.2h-15.5
		c-1.6,0-3.2,0.1-4.8,0.2V94c3.9-0.3,4.2-1.5,4.2-6V74.6c0-4.5-0.2-5.7-4.2-6V68c3.7,0.1,6.5,0.2,11.5,0.2c3.8,0,7.7-0.1,11.6-0.2
		c-0.1,1.2-0.1,2.3-0.1,3.3c0,1.2,0.2,2.3,0.2,3.8l-0.5,0.2c-1.4-5.2-4.8-6.2-9-6.2c-1.9,0-3.8,0.1-5.8,0.2v10
		c1.1,0,2.1-0.1,3.2-0.1c3.7,0,6-1.2,6.5-5.1h0.5c0,1.9-0.1,3.8-0.1,5.7s0.1,3.9,0.1,5.8h-0.5c-0.9-4.5-2.7-5.3-7.1-5.3h-2.6v12.4
		C271.8,92.7,271.7,92.7,271.7,92.7z"/>
	<path class="st0" d="M297,68c2.3,0.1,4.5,0.2,6.7,0.2c2.1,0,4.3-0.1,6.5-0.2v0.5c-1.4,0.2-3.4,0.8-3.4,2.5c0,0.6,0.6,1.6,1.7,3
		l5.8,7.7l4.8-7.4c0.7-1.1,1.1-2.2,1.1-3.1c0-1.5-1.6-2.6-3.2-2.6V68c1.9,0.1,3.9,0.2,5.8,0.2c1.7,0,3.5-0.1,5.2-0.2v0.5
		c-3.9,0.8-6.1,4.3-7.7,6.6l-5.6,8V89c0,3.9,1.2,4.7,4.9,4.9v0.5c-2.4-0.1-4.9-0.2-7.3-0.2c-2,0-4.1,0.1-6.1,0.2v-0.5
		c3.6-0.3,4.8-1,4.8-4.9v-6.3l-7.4-9.3c-1.5-1.9-3.1-4.1-6.6-4.9L297,68L297,68z"/>
	<path class="st0" d="M353.1,75.6c-1.4-3.5-4.6-7-8.8-7c-3.1,0-5.4,1-5.4,3.9c0,6.9,16,5.3,16,15c0,5.2-4.2,7.5-9.2,7.5
		c-2.7,0-6.2-1.2-7.5-1.2c-0.6,0-1.2,0.2-1.7,0.4c-0.5-3.1-1.2-6-1.9-8.9l0.5-0.3c2,3.7,5.6,8.7,10.5,8.7c3.2,0,6.1-1.3,6.1-4.8
		c0-7.7-16-6.4-16-14.7c0-4.2,3.6-6.9,7.7-6.9c2,0,3.6,0.3,5.1,0.6c1.6,0.3,3,0.7,4.8,0.7c0,2.3,0,4.7,0.3,6.9L353.1,75.6
		L353.1,75.6z"/>
	<path class="st0" d="M44.9,74.5C43,68.3,39,63.6,32.2,63.6c-8.7,0-12.2,7.2-12.2,15.6c0,8.5,4.7,15.7,13.5,15.7
		c6.5,0,11.2-3.4,14.9-8.9l1.4,1.1c-4.5,6.8-9.4,10.6-17.8,10.6c-9.5,0-17-7.2-17-17.7c0-11,7.9-18.1,17-18.1c5.3,0,9,1.5,12.9,1.6
		c0,2.9,0.6,8.1,1,11.1L44.9,74.5L44.9,74.5L44.9,74.5z"/>
	<path class="st0" d="M118.8,114.2c0-0.5,0-0.9,0-1.3c0-0.3-0.1-0.6-0.2-0.8c-0.1-0.2-0.3-0.4-0.6-0.4c-0.3-0.1-0.6-0.2-1-0.2v-0.2
		c0.5,0,1,0,1.5,0.1c0.5,0,1,0,1.5,0c0.4,0,0.8,0,1.2,0s0.8,0,1.2-0.1v0.2c-0.4,0-0.8,0.1-1,0.2s-0.4,0.2-0.5,0.4
		c-0.1,0.2-0.2,0.5-0.2,0.8s0,0.7,0,1.3v6c0,0.5,0,0.9,0,1.3c0,0.3,0.1,0.6,0.2,0.8c0.1,0.2,0.3,0.4,0.6,0.4c0.3,0.1,0.6,0.2,1,0.2
		v0.2c-0.5,0-0.9,0-1.4-0.1c-0.5,0-0.9,0-1.4,0c-0.4,0-0.9,0-1.3,0s-0.9,0-1.3,0.1V123c0.4,0,0.8-0.1,1-0.2s0.4-0.2,0.5-0.4
		c0.1-0.2,0.2-0.5,0.2-0.8s0-0.7,0-1.3V117h-6.7v3.2c0,0.5,0,0.9,0,1.3c0,0.3,0.1,0.6,0.2,0.8c0.1,0.2,0.3,0.4,0.6,0.4
		c0.3,0.1,0.6,0.2,1,0.2v0.2c-0.5,0-0.9,0-1.4-0.1c-0.5,0-0.9,0-1.4,0c-0.4,0-0.9,0-1.3,0s-0.9,0-1.3,0.1V123c0.4,0,0.8-0.1,1-0.2
		s0.4-0.2,0.5-0.4c0.1-0.2,0.2-0.5,0.2-0.8s0-0.7,0-1.3v-6c0-0.5,0-0.9,0-1.3c0-0.3-0.1-0.6-0.2-0.8c-0.1-0.2-0.3-0.4-0.6-0.4
		c-0.3-0.1-0.6-0.2-1-0.2v-0.2c0.5,0,1,0,1.5,0.1c0.5,0,1,0,1.5,0c0.4,0,0.8,0,1.2,0s0.8,0,1.2-0.1v0.2c-0.4,0-0.7,0.1-1,0.2
		c-0.2,0.1-0.4,0.2-0.5,0.4c-0.1,0.2-0.2,0.5-0.2,0.8s0,0.7,0,1.3v2.2h6.7L118.8,114.2L118.8,114.2z"/>
	<path class="st0" d="M131.1,122.4c0.1,0,0.2,0,0.4,0.1c0.2,0,0.3,0,0.5,0.1c0.2,0,0.4,0,0.6,0.1c0.2,0,0.4,0,0.5,0
		c0.7,0,1.4-0.1,1.9-0.2c0.6-0.1,1.1-0.3,1.6-0.6c0.5-0.3,0.9-0.6,1.3-1c0.4-0.4,0.8-0.9,1.3-1.5l0.2,0.2l-1.6,3.6
		c-0.2,0-0.4,0-0.6-0.1c-0.2,0-0.4,0-0.6,0h-6.8c-0.3,0-0.7,0-1,0s-0.7,0-1,0.1V123c0.4,0,0.8-0.1,1-0.2s0.4-0.2,0.5-0.4
		c0.1-0.2,0.2-0.5,0.2-0.8s0-0.7,0-1.2v-6c0-0.5,0-0.9,0-1.3c0-0.3-0.1-0.6-0.2-0.8c-0.1-0.2-0.3-0.4-0.6-0.4
		c-0.3-0.1-0.6-0.2-1-0.2v-0.2c0.4,0,0.8,0,1.2,0s0.7,0,1.1,0s0.8,0,1.2,0h1.5c0.8,0,1.7,0,2.5,0s1.7,0,2.6-0.1c0,0.1,0,0.3,0,0.4
		s0,0.3,0,0.4v0.7c0,0.3,0,0.5,0,0.8s0,0.6,0.1,0.9l-0.2,0.1c-0.2-0.6-0.4-1-0.6-1.4c-0.3-0.4-0.6-0.7-0.9-0.9
		c-0.3-0.2-0.7-0.3-1.1-0.4c-0.4-0.1-0.8-0.1-1.3-0.1c-0.8,0-1.7,0-2.5,0.1v4.5c0.2,0,0.5,0,0.7,0c0.2,0,0.5,0,0.7,0
		c0.8,0,1.5-0.2,2-0.5s0.8-0.9,0.9-1.8h0.2c0,0.4,0,0.9,0,1.3s0,0.9,0,1.3s0,0.9,0,1.3s0,0.9,0,1.3h-0.2c-0.1-0.5-0.2-0.9-0.4-1.2
		c-0.2-0.3-0.4-0.6-0.6-0.7c-0.2-0.2-0.5-0.3-0.9-0.3c-0.3-0.1-0.8-0.1-1.2-0.1h-1.2v5.3L131.1,122.4L131.1,122.4z"/>
	<path class="st0" d="M149.1,112.8l-1.8,4.6h3.4L149.1,112.8z M147.1,117.9l-1.2,3.3c0,0.1-0.1,0.2-0.1,0.3s0,0.1,0,0.2
		c0,0.2,0.1,0.4,0.2,0.6c0.1,0.2,0.3,0.3,0.5,0.4s0.4,0.2,0.6,0.2c0.2,0.1,0.4,0.1,0.5,0.1v0.2c-0.4,0-0.7,0-1.1-0.1
		c-0.4,0-0.7,0-1.1,0s-0.7,0-1.1,0c-0.3,0-0.7,0-1.1,0.1V123c0.4-0.1,0.7-0.2,0.9-0.4c0.2-0.2,0.5-0.4,0.6-0.6
		c0.2-0.2,0.3-0.5,0.4-0.8c0.1-0.3,0.2-0.6,0.4-0.9l3.1-7.6c0-0.1,0.1-0.2,0.1-0.2c0-0.1,0-0.1,0-0.2s0-0.2-0.1-0.3
		c0-0.1-0.1-0.2-0.2-0.3c0.3-0.1,0.6-0.1,0.8-0.2s0.5-0.2,0.8-0.3l3.7,10.3c0.2,0.5,0.4,0.8,0.7,1.1c0.3,0.3,0.7,0.4,1.3,0.5v0.2
		c-0.5,0-1,0-1.4-0.1c-0.5,0-0.9,0-1.4,0h-0.8c-0.2,0-0.5,0-0.6,0c-0.2,0-0.4,0-0.6,0c-0.2,0-0.4,0-0.6,0V123
		c0.5-0.1,0.9-0.2,1.3-0.4c0.3-0.2,0.5-0.5,0.5-0.8c0-0.1,0-0.2-0.1-0.3c0-0.1-0.1-0.2-0.1-0.3l-1.2-3.3L147.1,117.9L147.1,117.9z"
		/>
	<path class="st0" d="M166.3,111.5c-0.6,0.1-1,0.2-1.3,0.3c-0.3,0.1-0.6,0.2-0.7,0.4c-0.2,0.2-0.2,0.4-0.3,0.6s-0.1,0.5-0.1,0.9v8.6
		c0.3,0.1,0.6,0.1,0.9,0.2c0.3,0,0.6,0.1,0.9,0.1c0.7,0,1.3-0.1,1.9-0.2c0.5-0.1,1-0.4,1.4-0.6c0.4-0.3,0.8-0.7,1.2-1.1
		s0.7-0.9,1.1-1.5h0.3l-1.4,4c-0.4,0-0.9,0-1.3-0.1c-0.4,0-0.9,0-1.3,0h-5.3c-0.3,0-0.6,0-0.9,0c-0.3,0-0.6,0-0.9,0.1V123
		c0.4,0,0.7-0.1,0.9-0.2s0.4-0.2,0.5-0.3c0.1-0.1,0.2-0.3,0.3-0.5c0-0.2,0.1-0.4,0.1-0.6v-7.1c0-0.5,0-0.9,0-1.3
		c0-0.3-0.1-0.6-0.2-0.8c-0.1-0.2-0.3-0.4-0.5-0.5s-0.6-0.2-1-0.2v-0.2c0.5,0,0.9,0,1.4,0.1c0.5,0,0.9,0,1.4,0s1,0,1.5,0
		s1,0,1.5-0.1L166.3,111.5L166.3,111.5z"/>
	<path class="st0" d="M177,123c0.4,0,0.8-0.1,1-0.2s0.4-0.2,0.5-0.5c0.1-0.2,0.2-0.5,0.2-0.8s0-0.7,0-1.3v-8.4c-0.6,0-1.2,0-1.6,0.1
		c-0.4,0-0.8,0.2-1.1,0.4c-0.3,0.2-0.6,0.5-0.8,0.9s-0.5,1-0.7,1.7l-0.2-0.1l0.3-3.5c0.5,0,1,0,1.5,0.1c0.5,0,1,0,1.5,0h4.2
		c0.5,0,1,0,1.4,0c0.5,0,0.9,0,1.4-0.1l0.3,3.5l-0.2,0.1c-0.2-0.7-0.5-1.3-0.7-1.7c-0.2-0.4-0.5-0.7-0.8-0.9
		c-0.3-0.2-0.7-0.3-1.1-0.4c-0.4,0-1-0.1-1.6-0.1v8.4c0,0.5,0,0.9,0,1.3c0,0.3,0.1,0.6,0.2,0.8c0.1,0.2,0.3,0.4,0.6,0.5
		s0.6,0.2,1,0.2v0.2c-0.5,0-0.9,0-1.4-0.1c-0.5,0-0.9,0-1.4,0c-0.4,0-0.9,0-1.3,0s-0.9,0-1.3,0.1L177,123L177,123z"/>
	<path class="st0" d="M200.3,114.2c0-0.5,0-0.9,0-1.3c0-0.3-0.1-0.6-0.2-0.8c-0.1-0.2-0.3-0.4-0.6-0.4c-0.3-0.1-0.6-0.2-1-0.2v-0.2
		c0.5,0,1,0,1.5,0.1c0.5,0,1,0,1.5,0c0.4,0,0.8,0,1.2,0s0.8,0,1.2-0.1v0.2c-0.4,0-0.8,0.1-1,0.2s-0.4,0.2-0.5,0.4
		c-0.1,0.2-0.2,0.5-0.2,0.8s0,0.7,0,1.3v6c0,0.5,0,0.9,0,1.3c0,0.3,0.1,0.6,0.2,0.8c0.1,0.2,0.3,0.4,0.6,0.4c0.3,0.1,0.6,0.2,1,0.2
		v0.2c-0.5,0-0.9,0-1.4-0.1c-0.5,0-0.9,0-1.4,0c-0.4,0-0.9,0-1.3,0c-0.4,0-0.9,0-1.3,0.1V123c0.4,0,0.8-0.1,1-0.2s0.4-0.2,0.5-0.4
		c0.1-0.2,0.2-0.5,0.2-0.8s0-0.7,0-1.3V117h-6.7v3.2c0,0.5,0,0.9,0,1.3c0,0.3,0.1,0.6,0.2,0.8c0.1,0.2,0.3,0.4,0.6,0.4
		c0.3,0.1,0.6,0.2,1,0.2v0.2c-0.5,0-0.9,0-1.4-0.1c-0.5,0-0.9,0-1.4,0c-0.4,0-0.9,0-1.3,0s-0.9,0-1.3,0.1V123c0.4,0,0.8-0.1,1-0.2
		s0.4-0.2,0.5-0.4c0.1-0.2,0.2-0.5,0.2-0.8s0-0.7,0-1.3v-6c0-0.5,0-0.9,0-1.3c0-0.3-0.1-0.6-0.2-0.8c-0.1-0.2-0.3-0.4-0.6-0.4
		c-0.3-0.1-0.6-0.2-1-0.2v-0.2c0.5,0,1,0,1.5,0.1c0.5,0,1,0,1.5,0c0.4,0,0.8,0,1.2,0s0.8,0,1.2-0.1v0.2c-0.4,0-0.7,0.1-1,0.2
		c-0.2,0.1-0.4,0.2-0.5,0.4c-0.1,0.2-0.2,0.5-0.2,0.8s0,0.7,0,1.3v2.2h6.7V114.2L200.3,114.2z"/>
	<path class="st0" d="M225.7,114.8c-0.2-0.4-0.4-0.8-0.6-1.1c-0.2-0.4-0.5-0.7-0.9-1c-0.3-0.3-0.7-0.5-1.1-0.7s-0.8-0.3-1.3-0.3
		c-0.7,0-1.2,0.1-1.7,0.4c-0.4,0.3-0.7,0.7-0.7,1.3c0,0.4,0.1,0.7,0.3,1s0.5,0.5,0.8,0.7s0.7,0.4,1.1,0.6s0.8,0.4,1.3,0.6
		c0.4,0.2,0.9,0.4,1.3,0.6c0.4,0.2,0.8,0.5,1.1,0.8s0.6,0.6,0.8,1s0.3,0.9,0.3,1.4c0,0.6-0.1,1.1-0.3,1.5s-0.5,0.8-0.9,1.1
		c-0.4,0.3-0.8,0.5-1.3,0.6s-1,0.2-1.6,0.2c-0.3,0-0.6,0-0.9-0.1c-0.3-0.1-0.6-0.1-0.9-0.2s-0.6-0.1-0.8-0.2s-0.4-0.1-0.6-0.1
		c-0.1,0-0.3,0-0.4,0.1c-0.1,0-0.2,0.1-0.4,0.1c-0.1-0.7-0.2-1.4-0.4-2c-0.1-0.7-0.3-1.3-0.4-2l0.2-0.1c0.2,0.4,0.5,0.9,0.8,1.3
		c0.3,0.5,0.7,0.9,1,1.2c0.4,0.4,0.8,0.7,1.3,0.9c0.5,0.3,1,0.4,1.5,0.4c0.3,0,0.7,0,1-0.1s0.6-0.2,0.9-0.4c0.2-0.2,0.4-0.4,0.6-0.7
		c0.1-0.3,0.2-0.6,0.2-1c0-0.6-0.2-1-0.5-1.4s-0.8-0.7-1.3-1s-1.1-0.5-1.7-0.8c-0.6-0.2-1.2-0.5-1.7-0.8s-0.9-0.7-1.3-1.1
		c-0.3-0.4-0.5-0.9-0.5-1.5c0-0.5,0.1-0.9,0.3-1.3s0.4-0.7,0.7-1s0.7-0.5,1.1-0.6c0.4-0.1,0.8-0.2,1.3-0.2c0.4,0,0.8,0,1.2,0.1
		s0.7,0.1,1,0.2s0.7,0.1,1,0.2s0.7,0.1,1.1,0.1c0,0.5,0,1.1,0,1.6s0.1,1,0.1,1.5h-0.1L225.7,114.8L225.7,114.8z"/>
	<path class="st0" d="M235.7,116.9c0.3,0.2,0.6,0.3,0.9,0.3c0.3,0.1,0.6,0.1,0.9,0.1c0.4,0,0.7-0.1,1.1-0.2c0.3-0.1,0.6-0.3,0.9-0.5
		c0.3-0.2,0.5-0.5,0.6-0.8c0.2-0.3,0.2-0.7,0.2-1.1c0-0.5-0.1-0.9-0.2-1.3s-0.4-0.7-0.6-1c-0.3-0.3-0.6-0.5-0.9-0.6
		c-0.4-0.1-0.8-0.2-1.2-0.2c-0.2,0-0.5,0-0.8,0s-0.6,0.1-0.9,0.2V116.9z M237.6,123.2c-0.5,0-0.9,0-1.4-0.1c-0.4,0-0.9,0-1.4,0
		c-0.4,0-0.9,0-1.3,0c-0.4,0-0.9,0-1.4,0.1V123c0.4,0,0.8-0.1,1.1-0.2s0.4-0.2,0.6-0.5c0.1-0.2,0.2-0.5,0.2-0.8s0-0.7,0-1.3v-6
		c0-0.5,0-0.9,0-1.3c0-0.3-0.1-0.6-0.2-0.8c-0.1-0.2-0.3-0.4-0.6-0.5s-0.6-0.2-1-0.2v-0.2c0.4,0,0.8,0,1.2,0.1c0.4,0,0.8,0,1.2,0
		c0.6,0,1.1,0,1.7-0.1c0.6-0.1,1.1-0.1,1.7-0.1c0.4,0,0.9,0.1,1.4,0.2c0.5,0.2,0.9,0.4,1.3,0.7c0.4,0.3,0.7,0.7,1,1.1
		s0.4,0.9,0.4,1.5s-0.1,1.1-0.4,1.5s-0.6,0.7-1,1c-0.4,0.2-0.8,0.4-1.3,0.5s-1,0.2-1.4,0.2s-0.7,0-1.1-0.1c-0.4,0-0.8-0.1-1.1-0.3
		v2.7c0,0.5,0,0.9,0,1.3c0,0.3,0.1,0.6,0.2,0.8c0.1,0.2,0.3,0.4,0.6,0.5s0.6,0.2,1,0.2C237.6,122.9,237.6,123.2,237.6,123.2z"/>
	<path class="st0" d="M251.7,112.8l-1.8,4.6h3.4L251.7,112.8z M249.7,117.9l-1.2,3.3c0,0.1-0.1,0.2-0.1,0.3s0,0.1,0,0.2
		c0,0.2,0.1,0.4,0.2,0.6c0.1,0.2,0.3,0.3,0.5,0.4s0.4,0.2,0.6,0.2c0.2,0.1,0.4,0.1,0.5,0.1v0.2c-0.4,0-0.7,0-1.1-0.1
		c-0.4,0-0.7,0-1.1,0c-0.4,0-0.7,0-1.1,0c-0.3,0-0.7,0-1.1,0.1V123c0.4-0.1,0.7-0.2,0.9-0.4c0.2-0.2,0.5-0.4,0.6-0.6
		c0.2-0.2,0.3-0.5,0.4-0.8c0.1-0.3,0.2-0.6,0.4-0.9l3.1-7.6c0-0.1,0.1-0.2,0.1-0.2c0-0.1,0-0.1,0-0.2s0-0.2-0.1-0.3
		c0-0.1-0.1-0.2-0.2-0.3c0.3-0.1,0.6-0.1,0.8-0.2s0.5-0.2,0.8-0.3l3.7,10.3c0.2,0.5,0.4,0.8,0.7,1.1c0.3,0.3,0.7,0.4,1.3,0.5v0.2
		c-0.5,0-1,0-1.4-0.1c-0.5,0-0.9,0-1.4,0h-0.8c-0.2,0-0.5,0-0.6,0c-0.2,0-0.4,0-0.6,0c-0.2,0-0.4,0-0.6,0V123
		c0.5-0.1,0.9-0.2,1.3-0.4c0.3-0.2,0.5-0.5,0.5-0.8c0-0.1,0-0.2-0.1-0.3c0-0.1-0.1-0.2-0.1-0.3l-1.2-3.3L249.7,117.9L249.7,117.9z"
		/>
</g>
<g>
	<path class="st1" d="M184.1,21.9l-0.7-21.8c-1.6,1.8-3.6,3.3-5.8,4.5L184.1,21.9z"/>
	<path class="st1" d="M185,21.9l6.5-17.4c-2.2-1.1-4.2-2.7-5.8-4.5L185,21.9z"/>
	<path class="st1" d="M182.4,22.9L166.9,8c0.1,2.4-0.2,5-1,7.4L182.4,22.9z"/>
	<path class="st1" d="M183.1,22.3l-7.4-17c-2.4,0.8-4.8,1.2-7.2,1.1L183.1,22.3z"/>
	<path class="st1" d="M182,24.9l-21.3,0.7c1.7,1.7,3.3,3.7,4.3,6L182,24.9z"/>
	<path class="st1" d="M182,23.9l-16.9-6.6c-1.1,2.3-2.6,4.3-4.3,6L182,23.9z"/>
	<path class="st1" d="M183.1,26.5l-14.6,15.9c2.4-0.1,4.8,0.2,7.2,1.1L183.1,26.5z"/>
	<path class="st1" d="M182.4,25.9l-16.5,7.6c0.8,2.4,1.1,4.9,1,7.4L182.4,25.9z"/>
	<path class="st1" d="M185,26.9l0.7,21.8c1.6-1.8,3.6-3.3,5.8-4.5L185,26.9z"/>
	<path class="st1" d="M184.1,26.9l-6.5,17.4c2.3,1.1,4.2,2.7,5.8,4.4L184.1,26.9z"/>
	<path class="st1" d="M186.6,25.9l15.5,15c-0.1-2.4,0.2-4.9,1-7.4L186.6,25.9z"/>
	<path class="st1" d="M186,26.5l7.4,17c2.4-0.8,4.8-1.2,7.2-1.1L186,26.5z"/>
	<path class="st1" d="M187,23.9l21.3-0.7c-1.7-1.7-3.3-3.7-4.3-6L187,23.9z"/>
	<path class="st1" d="M187,24.9l16.9,6.6c1.1-2.3,2.6-4.3,4.3-6L187,24.9z"/>
	<path class="st1" d="M186,22.3l14.6-15.9c-2.4,0.1-4.8-0.2-7.2-1.1L186,22.3z"/>
	<path class="st1" d="M186.6,22.9l16.5-7.6c-0.8-2.4-1.1-4.9-1-7.4L186.6,22.9z"/>
	<path class="st1" d="M139,29.4c0.4,0,0.7,0,1,0c0.2,0,0.4-0.1,0.6-0.3c0.1-0.1,0.2-0.4,0.3-0.7c0.1-0.3,0.1-0.7,0.1-1.2v-5.5
		c0-0.4,0-0.6-0.1-0.9c0-0.2-0.1-0.4-0.3-0.5c-0.1-0.1-0.3-0.2-0.5-0.3c-0.2,0-0.5-0.1-0.9-0.1v-0.3c1.2-0.1,2.4-0.4,3.5-0.9v8.5
		c0,0.5,0,0.9,0.1,1.2c0.1,0.3,0.1,0.5,0.3,0.7c0.1,0.1,0.3,0.2,0.5,0.3c0.2,0,0.5,0,0.9,0v0.3c-0.5,0-0.9,0-1.4,0s-0.9,0-1.4,0
		s-0.9,0-1.4,0s-0.9,0-1.4,0L139,29.4L139,29.4z"/>
	<path class="st1" d="M153.2,22.5c0-0.5-0.1-1-0.2-1.3c-0.1-0.4-0.2-0.7-0.4-0.9c-0.2-0.2-0.4-0.4-0.6-0.5s-0.4-0.2-0.7-0.2
		s-0.5,0.1-0.6,0.2c-0.2,0.1-0.3,0.3-0.4,0.5s-0.2,0.5-0.2,0.8s-0.1,0.6-0.1,1c0,0.9,0.1,1.5,0.4,2s0.7,0.7,1.2,0.7
		c0.3,0,0.5-0.1,0.7-0.2s0.4-0.3,0.5-0.5s0.2-0.4,0.3-0.7S153.2,22.8,153.2,22.5 M148,29.4c0.8,0,1.5-0.1,2.1-0.3s1.1-0.5,1.5-0.8
		c0.4-0.4,0.8-0.8,1-1.4c0.3-0.6,0.4-1.2,0.6-2c-0.3,0.2-0.7,0.3-1,0.4s-0.7,0.1-1.1,0.1c-0.5,0-0.9-0.1-1.3-0.3s-0.7-0.4-1-0.7
		s-0.5-0.6-0.6-1.1c-0.1-0.4-0.2-0.8-0.2-1.3s0.1-1,0.3-1.4s0.4-0.7,0.7-1s0.7-0.5,1.1-0.6s0.9-0.2,1.4-0.2c0.6,0,1.2,0.1,1.7,0.4
		c0.5,0.2,0.8,0.5,1.2,0.9c0.3,0.4,0.5,0.8,0.7,1.4c0.1,0.5,0.2,1.1,0.2,1.6c0,1.2-0.2,2.2-0.5,3.1c-0.3,0.8-0.8,1.5-1.4,2.1
		c-0.6,0.5-1.4,0.9-2.3,1.2c-0.9,0.2-1.9,0.4-3.1,0.4L148,29.4L148,29.4z"/>
	<path class="st1" d="M213.3,29.6l-0.1-0.4c0.5-0.5,1.1-1,1.6-1.6c0.6-0.5,1.1-1.1,1.6-1.7s0.9-1.3,1.2-1.9c0.3-0.7,0.5-1.4,0.5-2.2
		s-0.2-1.3-0.5-1.8c-0.3-0.4-0.7-0.6-1.2-0.6c-0.2,0-0.4,0-0.6,0.1c-0.2,0.1-0.3,0.2-0.4,0.3c-0.1,0.1-0.2,0.3-0.2,0.4
		c-0.1,0.1-0.1,0.3-0.1,0.4c0.2,0.1,0.3,0.3,0.5,0.6c0.1,0.3,0.2,0.5,0.2,0.7c0,0.3-0.1,0.5-0.3,0.7s-0.5,0.3-0.8,0.3
		s-0.6-0.1-0.8-0.3s-0.3-0.6-0.3-1c0-0.5,0.1-0.9,0.3-1.2c0.2-0.4,0.4-0.6,0.7-0.9c0.3-0.2,0.6-0.4,1-0.5s0.8-0.2,1.2-0.2
		c0.5,0,0.9,0.1,1.3,0.2c0.4,0.1,0.8,0.3,1.1,0.5s0.6,0.5,0.7,0.9c0.2,0.4,0.3,0.8,0.3,1.4c0,0.7-0.2,1.3-0.5,1.8s-0.7,1-1.2,1.5
		s-1,0.9-1.5,1.3s-1,0.9-1.5,1.3h2.4c0.4,0,0.7,0,1-0.1c0.3,0,0.5-0.1,0.7-0.2s0.4-0.2,0.6-0.4s0.4-0.4,0.6-0.6l0.2,0.2
		c-0.2,0.4-0.5,0.9-0.7,1.3s-0.4,0.9-0.6,1.4h-6.4V29.6z"/>
	<path class="st1" d="M223.9,25.4l1.7-6.1h1.3c0.2,0.2,0.4,0.4,0.6,0.5c0.2,0.1,0.5,0.1,0.8,0.1c0.2,0,0.4,0,0.6-0.1
		s0.4-0.1,0.6-0.2c0.2-0.1,0.4-0.2,0.6-0.3s0.4-0.2,0.5-0.3l0.2,0.3c-0.6,0.5-1.2,0.9-1.8,1.2c-0.6,0.3-1.4,0.4-2.1,0.4
		c-0.2,0-0.4,0-0.5-0.1c-0.1,0-0.3-0.1-0.4-0.1l-0.9,3.1c0.4-0.2,0.7-0.4,1-0.5s0.7-0.2,1.1-0.2c0.5,0,1,0.1,1.4,0.2
		c0.4,0.2,0.8,0.4,1.1,0.7c0.3,0.3,0.5,0.6,0.7,1s0.2,0.8,0.2,1.3c0,1.1-0.4,1.9-1.1,2.5c-0.7,0.6-1.7,0.9-3,0.9
		c-1.1,0-1.9-0.2-2.4-0.6s-0.8-0.9-0.8-1.6c0-0.3,0.1-0.5,0.3-0.8c0.2-0.2,0.4-0.3,0.7-0.3c0.7,0,1,0.4,1,1.1c0,0.2,0,0.3-0.1,0.4
		c0,0.1-0.1,0.2-0.1,0.4c0.1,0.2,0.3,0.4,0.6,0.5c0.2,0.2,0.5,0.2,0.8,0.2s0.5,0,0.8-0.1c0.2-0.1,0.5-0.3,0.6-0.5
		c0.2-0.2,0.3-0.5,0.4-0.8c0.1-0.4,0.2-0.8,0.2-1.3c0-0.7-0.2-1.3-0.6-1.8c-0.4-0.5-0.9-0.7-1.5-0.7c-0.2,0-0.4,0-0.7,0.1
		c-0.2,0.1-0.4,0.2-0.6,0.3s-0.4,0.3-0.5,0.5c-0.2,0.2-0.3,0.4-0.3,0.6L223.9,25.4z"/>
</g>
</svg>
